<svg width="10" height="7" viewBox="0 0 10 7" fill="none" xmlns="http://www.w3.org/2000/svg">
<path d="M0.227036 0.96959C0.367682 0.828987 0.558413 0.75 0.757286 0.75C0.956159 0.75 1.14689 0.828987 1.28754 0.96959L5.00004 4.68209L8.71254 0.96959C8.85399 0.832971 9.04344 0.757375 9.24009 0.759084C9.43674 0.760793 9.62484 0.83967 9.7639 0.978726C9.90296 1.11778 9.98183 1.30589 9.98354 1.50254C9.98525 1.69919 9.90965 1.88864 9.77304 2.03009L5.53029 6.27284C5.38964 6.41344 5.19891 6.49243 5.00004 6.49243C4.80116 6.49243 4.61043 6.41344 4.46979 6.27284L0.227036 2.03009C0.0864329 1.88944 0.00744629 1.69871 0.00744629 1.49984C0.00744629 1.30097 0.0864329 1.11024 0.227036 0.96959Z" fill="#7A8895"/>
</svg>
