<svg width="24" height="24" viewBox="0 0 24 24" fill="none" xmlns="http://www.w3.org/2000/svg">
<g clip-path="url(#clip0_9010_1280)">
<path d="M0 8.53333C0 5.54639 0 4.05291 0.581299 2.91205C1.09262 1.90852 1.90852 1.09262 2.91205 0.581299C4.05291 0 5.54639 0 8.53333 0H15.4667C18.4536 0 19.9471 0 21.088 0.581299C22.0915 1.09262 22.9074 1.90852 23.4187 2.91205C24 4.05291 24 5.54639 24 8.53333V15.4667C24 18.4536 24 19.9471 23.4187 21.088C22.9074 22.0915 22.0915 22.9074 21.088 23.4187C19.9471 24 18.4536 24 15.4667 24H8.53333C5.54639 24 4.05291 24 2.91205 23.4187C1.90852 22.9074 1.09262 22.0915 0.581299 21.088C0 19.9471 0 18.4536 0 15.4667V8.53333Z" fill="white"/>
<path d="M16.5384 6.39209L12.0481 9.89641L7.45508 6.39209V6.39304L7.46063 6.39777V11.3048L11.9963 14.8848L16.5384 11.443V6.39209Z" fill="#EA4335"/>
<path d="M17.7176 5.53979L16.5383 6.39219V11.4431L20.249 8.59423V6.87806C20.249 6.87806 19.7986 4.42693 17.7176 5.53979Z" fill="#FBBC05"/>
<path d="M16.5383 11.4432V17.9943H19.3824C19.3824 17.9943 20.1916 17.911 20.2499 16.9885V8.59424L16.5383 11.4432Z" fill="#34A853"/>
<path d="M7.46084 18.0002V11.305L7.45508 11.3003L7.46084 18.0002Z" fill="#C5221F"/>
<path d="M7.4551 6.3934L6.28234 5.54573C4.20135 4.43288 3.75 6.88306 3.75 6.88306V8.59922L7.4551 11.3004V6.3934Z" fill="#C5221F"/>
<path d="M7.45508 6.39307V11.3001L7.46084 11.3048V6.3978L7.45508 6.39307Z" fill="#C5221F"/>
<path d="M3.75 8.6001V16.9944C3.80734 17.9178 4.61754 18.0002 4.61754 18.0002H7.46158L7.4551 11.3003L3.75 8.6001Z" fill="#4285F4"/>
</g>
<defs>
<clipPath id="clip0_9010_1280">
<rect width="24" height="24" fill="white"/>
</clipPath>
</defs>
</svg>
