<svg width="32" height="17" viewBox="0 0 32 17" fill="none" xmlns="http://www.w3.org/2000/svg">
<path d="M31.3547 5.38513C30.7448 3.94797 29.7318 2.72842 28.4546 1.86518C27.8191 1.43615 27.1159 1.09489 26.3612 0.862175C25.6116 0.624408 24.8105 0.50025 23.9837 0.50025C22.9236 0.50025 21.9054 0.707243 20.9751 1.08484C20.8973 1.11555 20.8252 1.14639 20.753 1.18272C19.9155 1.5497 19.1503 2.06662 18.494 2.68192C18.2821 2.88336 18.0806 3.09534 17.8787 3.33311C17.5223 3.74148 17.1553 4.21196 16.7985 4.68743C16.7262 4.78531 16.6485 4.8888 16.5764 4.98731C16.38 5.25585 14.5032 8.00594 14.1725 8.49708C14.007 8.7449 13.8106 9.02405 13.5986 9.32898C13.5521 9.39615 13.5007 9.46881 13.4492 9.54097C13.0974 10.0423 12.7046 10.5698 12.3427 11.0352C12.162 11.2674 11.9807 11.4844 11.8258 11.6656C11.6658 11.8514 11.5209 12.0014 11.4174 12.0997C10.9732 12.5182 10.4507 12.8595 9.8773 13.0922C9.30338 13.3249 8.67791 13.4541 8.01611 13.4541C7.56129 13.4541 7.12209 13.3919 6.70873 13.2784C6.49674 13.2214 6.28975 13.1492 6.08831 13.0614C5.19891 12.6888 4.43917 12.0583 3.90664 11.2673C3.6381 10.8696 3.42605 10.4354 3.28123 9.97C3.14184 9.50458 3.05913 9.01394 3.05913 8.49702C3.05913 7.8095 3.19896 7.16336 3.44677 6.56866C3.82437 5.67976 4.45484 4.92514 5.24585 4.38749C5.64361 4.11845 6.0777 3.91195 6.54312 3.76707C7.00804 3.62219 7.49918 3.53998 8.01611 3.53998C8.67791 3.54497 9.30338 3.66919 9.8773 3.90141C10.4508 4.13911 10.9732 4.47532 11.4174 4.8938C11.5209 4.99224 11.6658 5.14717 11.8258 5.32838C12.1049 5.65398 12.4356 6.07246 12.7667 6.51217C12.8959 6.68782 13.0251 6.86348 13.1544 7.04419C13.6506 6.32084 14.5188 5.04923 14.9736 4.39248C14.8964 4.28899 14.8187 4.18605 14.7414 4.08256C14.5344 3.81851 14.3275 3.56563 14.121 3.33292C13.914 3.09516 13.7177 2.88317 13.5057 2.68173C12.7924 2.00931 11.95 1.46168 11.0246 1.08459C10.0943 0.706993 9.07567 0.5 8.01611 0.5C6.91516 0.5 5.86065 0.722598 4.89953 1.13097C3.46244 1.73572 2.24739 2.74883 1.38415 4.02544C0.955115 4.66152 0.61435 5.36921 0.376583 6.11884C0.143934 6.87372 0.0197754 7.66979 0.0197754 8.49714C0.0197754 9.59809 0.241875 10.6526 0.645249 11.6087C1.25499 13.0509 2.26811 14.2659 3.53972 15.1291C4.1808 15.5582 4.88399 15.8989 5.63862 16.1367C6.38819 16.3694 7.18932 16.4935 8.01617 16.4935C9.07573 16.4935 10.0944 16.2865 11.0247 15.9095C11.95 15.5319 12.7874 14.9842 13.5007 14.3174L13.5057 14.3123C13.7178 14.1159 13.9142 13.8984 14.1211 13.6606C14.4775 13.2522 14.8444 12.7823 15.2013 12.3067C15.2735 12.2083 15.3513 12.1098 15.4234 12.0119C15.6198 11.7378 18.1892 7.96955 18.4007 7.66467C18.4477 7.59751 18.4992 7.52535 18.5506 7.45269C18.9025 6.95643 19.2952 6.42396 19.6571 5.95904C19.8378 5.72633 20.019 5.50922 20.174 5.32851C20.3341 5.14224 20.479 4.9923 20.5824 4.89392C21.0266 4.47544 21.5491 4.13924 22.1225 3.90153C22.2624 3.84497 22.4017 3.7986 22.5465 3.75159C23.0013 3.61738 23.4819 3.54516 23.9837 3.5401C24.6711 3.5451 25.3224 3.67943 25.9114 3.9328C26.8004 4.30484 27.5606 4.93531 28.0926 5.72633C28.3617 6.12458 28.5737 6.55873 28.718 7.02359C28.8629 7.48902 28.9406 7.98016 28.9406 8.49708C28.9406 9.1846 28.8008 9.83579 28.553 10.4249C28.1754 11.3138 27.5449 12.074 26.7539 12.606C26.3562 12.8751 25.9221 13.0871 25.4567 13.2265C24.9968 13.3713 24.5006 13.4542 23.9837 13.4542C23.3219 13.4542 22.6964 13.325 22.1225 13.0923C21.549 12.8595 21.0265 12.5183 20.5823 12.0998C20.4788 12.0014 20.3339 11.8464 20.174 11.6657C19.8948 11.3452 19.5637 10.9211 19.233 10.482C19.0988 10.3063 18.9695 10.1251 18.8403 9.94435C18.7989 10.0064 18.7575 10.0686 18.7111 10.1357C17.858 11.3866 17.3204 12.1775 17.0261 12.6061C17.1033 12.7096 17.181 12.808 17.2583 12.9115C17.4653 13.175 17.6722 13.4285 17.8786 13.6606C18.0805 13.8983 18.282 14.1159 18.494 14.3123C19.2072 14.9842 20.0497 15.5319 20.975 15.9095C21.9054 16.2865 22.9235 16.4935 23.9836 16.4935C25.0845 16.4935 26.1391 16.2714 27.0951 15.8681C28.5373 15.2583 29.7518 14.2452 30.6155 12.9681C31.0441 12.3326 31.3909 11.6294 31.6231 10.8747C31.8559 10.1251 31.9801 9.32399 31.9801 8.49714C31.9801 7.39619 31.758 6.34169 31.3547 5.38513Z" fill="#13F195"/>
</svg>
