<svg width="207" height="202" viewBox="0 0 207 202" fill="none" xmlns="http://www.w3.org/2000/svg">
<circle cx="105.5" cy="101" r="91" stroke="#7BB9FF" stroke-opacity="0.05" stroke-width="20"/>
<mask id="path-2-inside-1_3127_58874" fill="white">
<path d="M105.5 202C83.4382 202 61.9832 194.776 44.4139 181.433C26.8447 168.09 14.1275 149.361 8.20604 128.109L27.6648 122.687C32.402 139.689 42.5757 154.672 56.6311 165.347C70.6866 176.021 87.8506 181.8 105.5 181.8L105.5 202Z"/>
</mask>
<path d="M105.5 202C83.4382 202 61.9832 194.776 44.4139 181.433C26.8447 168.09 14.1275 149.361 8.20604 128.109L27.6648 122.687C32.402 139.689 42.5757 154.672 56.6311 165.347C70.6866 176.021 87.8506 181.8 105.5 181.8L105.5 202Z" stroke="#13F195" stroke-width="40" mask="url(#path-2-inside-1_3127_58874)"/>
<circle cx="16" cy="120.5" r="13.5" fill="#B3FFDF" stroke="#13F195" stroke-width="4"/>
</svg>
