<svg width="10" height="10" viewBox="0 0 10 10" fill="none" xmlns="http://www.w3.org/2000/svg">
<path d="M5.7549 0.569375C5.4289 -0.023125 4.5709 -0.023125 4.2444 0.569375C3.81504 1.34957 3.46111 2.16895 3.1874 3.01638C3.17449 3.04953 3.15179 3.07796 3.12231 3.09788C3.09283 3.1178 3.05798 3.12827 3.0224 3.12787C2.28888 3.14694 1.55776 3.2198 0.834902 3.34588C0.166402 3.46238 -0.128098 4.26438 0.379902 4.76088C0.925824 5.29526 1.50932 5.78986 2.1259 6.24088C2.15043 6.25742 2.16895 6.28145 2.17868 6.30939C2.18842 6.33733 2.18884 6.36767 2.1799 6.39587C1.90563 7.21992 1.70976 8.06801 1.5949 8.92887C1.4999 9.64087 2.2534 10.0779 2.8419 9.77588C3.55634 9.40972 4.23947 8.98546 4.8844 8.50737C4.91818 8.48348 4.95853 8.47065 4.9999 8.47065C5.04127 8.47065 5.08163 8.48348 5.1154 8.50737C5.75994 8.98602 6.44313 9.41032 7.1579 9.77588C7.7464 10.0779 8.5004 9.64087 8.4054 8.92887C8.29035 8.06817 8.09431 7.22024 7.8199 6.39638C7.81106 6.36807 7.81164 6.33765 7.82156 6.3097C7.83147 6.28175 7.85019 6.25778 7.8749 6.24137C8.49114 5.79032 9.0743 5.29572 9.6199 4.76137C10.1279 4.26437 9.8334 3.46238 9.1649 3.34588C8.44188 3.21978 7.71059 3.14692 6.9769 3.12787C6.94141 3.12816 6.90667 3.11765 6.87729 3.09774C6.84791 3.07783 6.82528 3.04945 6.8124 3.01638C6.53956 2.16862 6.18509 1.34916 5.7549 0.569375Z" fill="#13F195"/>
</svg>
