<svg width="12" height="14" viewBox="0 0 12 14" fill="none" xmlns="http://www.w3.org/2000/svg">
<path d="M6.00033 0.333496L0.666992 2.3335V6.3935C0.666992 9.76016 2.94033 12.9002 6.00033 13.6668C9.06032 12.9002 11.3337 9.76016 11.3337 6.3935V2.3335L6.00033 0.333496ZM10.0003 6.3935C10.0003 9.06016 8.30032 11.5268 6.00033 12.2802C3.70033 11.5268 2.00033 9.06683 2.00033 6.3935V3.26016L6.00033 1.76016L10.0003 3.26016V6.3935ZM4.60699 4.66683L3.66699 5.60683L5.06033 7.00016L3.66699 8.3935L4.60699 9.3335L6.00033 7.94683L7.39366 9.3335L8.33366 8.3935L6.94699 7.00016L8.33366 5.60683L7.39366 4.66683L6.00033 6.06016L4.60699 4.66683Z" fill="#F1D713"/>
</svg>
