<svg width="22" height="18" viewBox="0 0 22 18" fill="none" xmlns="http://www.w3.org/2000/svg">
<path d="M10.9998 10C13.7612 10 15.9998 7.76142 15.9998 5C15.9998 2.23858 13.7612 0 10.9998 0C8.23833 0 5.99976 2.23858 5.99976 5C5.99976 7.76142 8.23833 10 10.9998 10Z" fill="#13F195"/>
<path d="M20.8 15.0992C19.9 13.2992 18.2 11.7992 16 10.8992C15.4 10.6992 14.7 10.6992 14.2 10.9992C13.2 11.5992 12.2 11.8992 11 11.8992C9.79997 11.8992 8.79997 11.5992 7.79997 10.9992C7.29997 10.7992 6.59997 10.6992 5.99997 10.9992C3.79997 11.8992 2.09997 13.3992 1.19997 15.1992C0.499973 16.4992 1.59997 17.9992 3.09997 17.9992H18.9C20.4 17.9992 21.5 16.4992 20.8 15.0992Z" fill="#13F195"/>
</svg>
