<svg width="21" height="18" viewBox="0 0 21 18" fill="none" xmlns="http://www.w3.org/2000/svg">
<path d="M20.0007 3H13.0007C11.4094 3 9.88331 3.63214 8.75809 4.75736C7.63287 5.88258 7.00073 7.4087 7.00073 9C7.00073 10.5913 7.63287 12.1174 8.75809 13.2426C9.88331 14.3679 11.4094 15 13.0007 15H20.0007V17C20.0007 17.2652 19.8954 17.5196 19.7078 17.7071C19.5203 17.8946 19.2659 18 19.0007 18H1.00073C0.735516 18 0.481162 17.8946 0.293626 17.7071C0.106089 17.5196 0.000732422 17.2652 0.000732422 17V1C0.000732422 0.734784 0.106089 0.48043 0.293626 0.292893C0.481162 0.105357 0.735516 0 1.00073 0H19.0007C19.2659 0 19.5203 0.105357 19.7078 0.292893C19.8954 0.48043 20.0007 0.734784 20.0007 1V3ZM13.0007 5H21.0007V13H13.0007C11.9399 13 10.9225 12.5786 10.1723 11.8284C9.42216 11.0783 9.00073 10.0609 9.00073 9C9.00073 7.93913 9.42216 6.92172 10.1723 6.17157C10.9225 5.42143 11.9399 5 13.0007 5ZM13.0007 8V10H16.0007V8H13.0007Z" fill="#13F195"/>
</svg>
